<?xml version="1.0" standalone="no"?>
<!DOCTYPE svg PUBLIC "-//W3C//DTD SVG 20010904//EN"
 "http://www.w3.org/TR/2001/REC-SVG-20010904/DTD/svg10.dtd">
<svg version="1.0" xmlns="http://www.w3.org/2000/svg"
 width="2000.000000pt" height="1500.000000pt" viewBox="0 0 2000.000000 1500.000000"
 preserveAspectRatio="xMidYMid meet">

<g transform="translate(0.000000,1500.000000) scale(0.100000,-0.100000)"
fill="#000000" stroke="none">
<path d="M8012 7358 c-7 -7 -12 -25 -12 -40 0 -15 -4 -28 -10 -28 -5 0 -10 -9
-10 -20 0 -11 5 -20 10 -20 6 0 10 -13 10 -29 0 -17 -4 -33 -10 -36 -5 -3 -10
-13 -10 -21 0 -10 12 -14 45 -14 38 0 45 3 45 20 0 11 -4 20 -10 20 -19 0 -11
59 10 70 26 14 26 30 -1 30 -14 0 -19 5 -17 18 3 12 12 16 31 14 21 -2 27 2
27 17 0 30 -72 45 -98 19z"/>
<path d="M7406 7351 c-51 -8 -76 -29 -76 -65 0 -34 15 -48 56 -55 46 -8 54
-34 12 -39 -16 -2 -28 1 -28 7 0 17 -27 13 -34 -5 -16 -42 -8 -52 42 -52 63 1
99 20 107 58 8 38 -8 60 -44 60 -35 0 -55 15 -48 34 7 18 38 21 54 5 6 -6 16
-8 22 -5 15 10 14 66 -1 65 -7 -1 -35 -5 -62 -8z"/>
<path d="M11270 7346 c0 -22 19 -30 35 -16 22 18 18 30 -10 30 -15 0 -25 -6
-25 -14z"/>
<path d="M8270 7320 c0 -16 -4 -30 -10 -30 -5 0 -10 -7 -10 -15 0 -8 4 -15 9
-15 5 0 11 -23 13 -51 3 -28 12 -55 19 -60 25 -15 68 -10 78 10 12 22 5 31
-26 31 -20 0 -23 5 -23 35 0 28 4 35 20 35 11 0 20 6 20 14 0 7 -9 16 -20 19
-14 3 -20 14 -20 31 0 21 -5 26 -25 26 -21 0 -25 -5 -25 -30z"/>
<path d="M10190 7332 c0 -10 3 -22 7 -26 10 -10 11 -116 1 -116 -4 0 -8 -8 -8
-19 0 -22 26 -31 92 -31 64 0 78 7 78 41 0 22 -5 29 -19 29 -11 0 -23 -4 -26
-10 -8 -12 -42 -13 -49 -1 -11 17 5 39 25 34 15 -4 19 0 19 21 0 28 -9 33 -28
14 -9 -9 -12 -6 -12 15 0 31 23 36 54 12 25 -19 36 -11 36 26 l0 29 -85 0
c-76 0 -85 -2 -85 -18z"/>
<path d="M11020 7300 c0 -5 -14 -10 -30 -10 -43 0 -80 -39 -80 -83 0 -19 7
-40 15 -47 8 -7 15 -18 15 -26 0 -7 10 -16 22 -20 l23 -7 -23 -8 c-12 -5 -22
-14 -22 -20 0 -13 56 -5 96 13 31 14 31 38 1 38 -35 0 -39 10 -12 32 19 14 25
29 25 57 0 20 5 42 12 49 8 8 8 15 -2 27 -14 17 -40 20 -40 5z m-5 -60 c11
-18 -6 -50 -25 -50 -25 0 -33 15 -20 40 11 21 35 27 45 10z"/>
<path d="M8573 7288 c-44 -12 -47 -21 -18 -64 14 -21 23 -45 20 -55 -5 -13 2
-19 27 -24 28 -7 36 -4 59 25 l27 32 17 -25 c20 -31 39 -39 71 -31 16 4 23 12
20 20 -6 14 24 74 37 74 21 0 3 33 -25 45 -39 16 -52 11 -44 -19 3 -13 -1 -31
-9 -42 -13 -18 -15 -17 -31 24 -13 31 -22 42 -39 42 -17 0 -25 -9 -34 -40 -6
-22 -16 -40 -22 -40 -14 0 -28 43 -18 55 15 20 -5 32 -38 23z"/>
<path d="M7686 7260 c-31 -38 -33 -73 -6 -100 58 -58 155 21 118 97 -10 22
-21 29 -49 31 -30 3 -41 -2 -63 -28z m79 -41 c0 -17 -6 -25 -22 -27 -19 -3
-23 1 -23 21 0 25 14 38 35 33 6 -2 10 -14 10 -27z"/>
<path d="M9025 7267 c-18 -26 -20 -101 -2 -114 6 -6 41 -10 77 -9 59 1 65 3
68 24 2 12 -1 22 -7 22 -14 0 -14 57 -1 65 6 3 10 12 10 20 0 11 -16 14 -65
14 -55 -1 -67 -4 -80 -22z m70 -27 c11 -18 -6 -50 -25 -50 -25 0 -33 15 -20
40 11 21 35 27 45 10z"/>
<path d="M9350 7275 c0 -8 5 -17 10 -20 6 -3 10 -19 10 -36 0 -16 -4 -29 -10
-29 -16 0 -11 -37 6 -44 47 -18 89 9 63 40 -17 21 -7 59 16 59 26 0 45 13 45
30 0 10 -17 14 -70 14 -53 0 -70 -3 -70 -14z"/>
<path d="M9692 7284 c-15 -7 -42 -57 -42 -79 0 -9 11 -27 25 -41 20 -20 34
-24 67 -23 50 3 69 14 61 36 -5 11 -15 13 -49 8 -25 -3 -45 -2 -49 5 -3 5 1
10 10 10 9 0 30 7 46 16 24 12 30 21 27 42 -3 24 -8 27 -43 29 -22 1 -46 -1
-53 -3z m56 -31 c-4 -22 -38 -30 -38 -10 0 14 13 24 33 26 5 1 7 -7 5 -16z"/>
<path d="M10547 7270 c-3 -11 -1 -20 4 -20 12 0 11 -57 -1 -65 -5 -3 -10 -13
-10 -21 0 -10 12 -14 45 -14 38 0 45 3 45 20 0 11 -4 20 -10 20 -15 0 -12 27
6 44 21 21 31 20 45 -5 8 -15 8 -24 0 -32 -6 -6 -11 -19 -11 -29 0 -14 8 -18
40 -18 33 0 40 3 40 20 0 11 -4 20 -10 20 -5 0 -10 17 -10 38 0 21 -5 43 -12
50 -15 15 -53 16 -79 2 -13 -7 -19 -7 -19 0 0 5 -13 10 -29 10 -20 0 -30 -6
-34 -20z"/>
<path d="M11245 7281 c-3 -5 -1 -12 5 -16 13 -8 13 -72 0 -80 -5 -3 -10 -13
-10 -21 0 -10 12 -14 39 -14 42 0 61 14 42 33 -14 14 -15 77 -1 77 6 0 10 7
10 15 0 11 -11 15 -39 15 -22 0 -42 -4 -46 -9z"/>
<path d="M11516 7241 c4 -31 2 -51 -5 -55 -6 -4 -11 -14 -11 -22 0 -22 89 -20
97 3 4 9 1 19 -5 21 -17 5 -15 37 3 52 12 10 18 10 30 0 17 -14 20 -50 5 -50
-5 0 -10 -9 -10 -20 0 -17 7 -20 40 -20 33 0 40 3 40 19 0 11 -4 23 -10 26 -5
3 -10 21 -10 39 0 17 -5 37 -12 44 -15 15 -53 16 -79 2 -13 -7 -19 -7 -19 0 0
5 -14 10 -30 10 l-31 0 7 -49z"/>
<path d="M11895 7266 c-57 -57 -14 -129 74 -124 38 3 46 6 46 23 0 17 -6 20
-42 17 -48 -3 -66 13 -24 21 37 8 63 34 59 61 -2 17 -11 22 -45 24 -35 3 -48
-2 -68 -22z m71 -25 c-10 -16 -36 -13 -36 3 0 17 21 27 34 16 4 -5 5 -13 2
-19z"/>
<path d="M12215 7266 c-57 -57 -14 -129 74 -124 38 3 46 6 46 23 0 17 -6 20
-42 17 -48 -3 -66 13 -24 21 37 8 63 34 59 61 -2 17 -11 22 -45 24 -35 3 -48
-2 -68 -22z m71 -25 c-10 -16 -36 -13 -36 3 0 17 21 27 34 16 4 -5 5 -13 2
-19z"/>
<path d="M12510 7274 c0 -8 6 -17 13 -20 16 -6 16 -56 0 -62 -7 -2 -13 -12
-13 -23 0 -20 34 -34 67 -27 19 3 32 48 14 48 -16 0 -13 35 3 49 7 6 20 9 29
5 16 -6 44 31 30 39 -5 2 -38 5 -75 5 -54 1 -68 -2 -68 -14z"/>
</g>
</svg>
