<svg version="1.1" id="Layer_1" xmlns="http://www.w3.org/2000/svg" xmlns:xlink="http://www.w3.org/1999/xlink" x="0px" y="0px"
	 width="100%" viewBox="0 0 920 964" enable-background="new 0 0 920 964" xml:space="preserve">
<path fill="#FFFFFF" opacity="1.000000" stroke="none" 
	d="
M921.000000,365.000000 
	C921.000000,565.333313 921.000000,765.166687 921.000000,965.000000 
	C614.333313,965.000000 307.666656,965.000000 1.000000,965.000000 
	C1.000000,643.666687 1.000000,322.333344 1.000000,1.000000 
	C307.666656,1.000000 614.333313,1.000000 921.000000,1.000000 
	C921.000000,122.166664 921.000000,243.333328 921.000000,365.000000 
M654.179321,525.233887 
	C654.030396,525.053101 653.881470,524.872375 654.219177,524.177795 
	C655.504395,522.470764 657.149963,520.899963 657.875122,518.981323 
	C658.121765,518.328857 655.904114,515.744568 655.062683,515.860352 
	C651.983398,516.284363 648.269958,516.690247 646.225586,518.618958 
	C644.534912,520.213989 643.610779,524.597900 644.629822,526.561462 
	C645.765320,528.749390 649.431519,529.703613 652.104614,530.965149 
	C652.900085,531.340637 654.174805,531.207703 655.029175,530.840515 
	C656.574036,530.176575 657.967896,529.161133 659.424866,528.292480 
	C657.810669,527.464722 656.196533,526.636963 654.179321,525.233887 
M432.923309,524.891479 
	C432.770050,524.720093 432.616791,524.548706 433.019470,524.020569 
	C435.539124,522.555115 437.700958,520.198303 435.732422,517.704651 
	C434.517975,516.166260 431.090363,515.568237 428.815277,515.846680 
	C424.461639,516.379333 421.365662,520.787109 422.052429,524.775879 
	C422.819519,529.231262 425.856781,531.088623 430.217468,531.025146 
	C431.207825,531.010742 432.297882,531.187866 433.165344,530.838257 
	C434.750916,530.199280 436.204651,529.233032 437.713379,528.403320 
	C436.270081,527.403992 434.826752,526.404724 432.923309,524.891479 
M686.177063,525.231812 
	C686.027710,525.050293 685.878296,524.868774 686.218201,524.176208 
	C687.503174,522.468323 689.147949,520.896484 689.873230,518.977112 
	C690.119141,518.326355 687.898315,515.743835 687.053345,515.859558 
	C683.971802,516.281433 680.257751,516.686340 678.208740,518.614136 
	C676.520935,520.201965 675.604980,524.584961 676.623535,526.547974 
	C677.759827,528.737854 681.417175,529.699097 684.086365,530.965149 
	C684.880920,531.342041 686.156250,531.210205 687.011414,530.844238 
	C688.558960,530.182068 691.213074,529.123718 691.183960,528.310120 
	C691.091797,525.729004 689.176270,524.733582 686.177063,525.231812 
M584.762695,491.119110 
	C585.086914,492.684692 585.411072,494.250275 585.958679,496.894379 
	C589.231018,495.604523 594.195557,494.938904 594.546387,493.291046 
	C596.279724,485.148621 596.792603,476.746368 597.789368,467.964996 
	C592.894897,468.369904 589.130005,468.681335 585.103210,469.014435 
	C585.103210,472.121796 585.236633,474.929871 585.069763,477.720001 
	C584.857300,481.272491 584.401733,484.810425 583.210876,487.915985 
	C571.652039,488.485016 570.956848,491.067657 571.539368,476.192017 
	C571.589844,474.902618 571.826904,473.620483 571.996155,472.173676 
	C578.333130,472.313782 576.403931,467.849213 576.876099,464.534821 
	C575.076172,464.004608 573.569092,463.560669 571.862549,463.057983 
	C571.862549,460.180634 571.862549,457.553375 571.862549,454.423035 
	C567.235107,454.423035 562.891174,454.423035 558.480835,454.423035 
	C558.274048,456.913086 558.839172,460.697906 557.766785,461.239349 
	C552.297119,464.000916 555.157837,468.591766 555.102966,472.140228 
	C556.613586,473.661102 557.690857,475.261200 557.913330,476.972443 
	C558.510193,481.563507 558.040466,486.418701 559.376648,490.741730 
	C560.197632,493.397552 563.307800,496.764526 565.830627,497.188232 
	C571.559326,498.150330 577.560303,497.491302 583.959229,497.491302 
	C583.959229,495.131378 583.959229,492.998810 584.762695,491.119110 
M899.361816,405.700317 
	C896.453918,408.754059 893.578491,411.839661 890.626831,414.850433 
	C888.604492,416.913208 886.476013,418.871887 884.394958,420.877075 
	C883.919312,420.530579 883.443665,420.184113 882.968018,419.837646 
	C882.968018,418.050873 883.031311,416.261536 882.957886,414.477783 
	C882.430603,401.669922 882.416809,388.811890 881.208801,376.067535 
	C879.136658,354.207764 876.256226,332.425446 873.839111,310.596924 
	C873.118469,304.088593 871.508118,298.189789 867.870972,292.454254 
	C845.331970,256.911743 823.189026,221.118301 800.822754,185.465790 
	C793.754822,174.199356 787.310974,162.378998 779.005249,152.083725 
	C758.617859,126.812645 732.795471,108.105125 703.724976,93.902908 
	C681.382751,82.987747 658.311096,73.543221 633.480591,70.744751 
	C617.526733,68.946716 601.235718,70.342239 585.119873,69.701546 
	C575.938965,69.336540 569.104858,71.868279 565.735413,81.195961 
	C557.431030,76.793015 548.941284,78.471260 540.508667,78.834366 
	C532.309692,79.187424 525.942139,82.363220 522.568909,90.046158 
	C519.078369,97.996391 521.083191,105.400330 527.018982,111.113960 
	C532.357727,116.252869 538.289612,121.071602 544.698547,124.741547 
	C558.408081,132.592041 573.704407,135.031372 589.308655,135.877243 
	C591.541016,135.998276 594.051697,136.376175 595.892212,137.512253 
	C617.830505,151.053802 640.111938,164.105362 661.422546,178.582092 
	C692.122375,199.437164 722.170349,221.257599 752.317810,242.914871 
	C758.156372,247.109177 763.808655,247.714417 770.088867,245.017929 
	C773.595032,243.512482 776.967163,241.696625 780.415527,240.053955 
	C781.993469,239.302307 783.609680,238.631104 785.541138,237.776230 
	C785.655090,239.115982 785.743530,239.762512 785.760498,240.410904 
	C786.532349,269.886841 791.924561,297.324036 818.749573,315.332306 
	C819.435913,315.792999 820.038940,316.385864 820.648071,316.952240 
	C833.744995,329.130341 834.789246,344.350342 830.556458,360.247467 
	C829.037231,365.953156 829.625793,370.326813 832.200623,375.268280 
	C840.095459,390.419678 848.774475,405.067688 862.028442,416.132935 
	C867.048035,420.323517 871.056519,423.797394 870.307434,431.134766 
	C870.060791,433.550964 872.527710,437.383423 874.782104,438.509338 
	C876.249023,439.242004 879.590576,436.287781 882.050720,434.911041 
	C882.560181,434.625916 882.885925,434.012573 883.957092,432.806549 
	C882.098450,455.263794 877.070007,476.706573 882.502075,498.298157 
	C882.912964,497.496643 883.017639,496.683075 883.129089,495.870392 
	C885.748779,476.763397 887.862366,457.567871 891.183472,438.583557 
	C893.114990,427.542084 896.983765,416.839508 900.355896,405.901672 
	C900.288513,405.742798 900.221069,405.583923 900.153687,405.425079 
	C900.117554,405.628906 900.081421,405.832703 899.361816,405.700317 
M548.925598,821.395874 
	C548.694702,821.388062 548.463806,821.380249 548.232910,821.372498 
	C548.349243,821.725342 548.465637,822.078247 548.685974,823.198181 
	C549.348633,826.841248 550.011353,830.484314 550.674011,834.127319 
	C550.143982,834.264893 549.613953,834.402466 549.083923,834.539978 
	C547.846130,833.590576 546.608398,832.641174 545.153931,831.525574 
	C544.762573,834.810913 544.559143,837.811646 543.984558,840.739441 
	C543.736816,842.002014 542.945923,843.347351 542.010254,844.248413 
	C539.623474,846.546814 536.718262,848.357178 534.564087,850.835327 
	C530.892273,855.059448 526.351624,856.342224 520.974609,857.062012 
	C505.500061,859.133484 490.115997,861.872620 474.670624,864.176819 
	C471.652405,864.627075 468.364563,864.936218 465.460968,864.234741 
	C431.595917,856.052917 397.388153,850.081116 362.582092,847.919922 
	C333.614868,846.121399 307.463257,836.333557 283.282806,820.555115 
	C292.960510,814.634277 295.390045,810.482361 292.582703,804.540466 
	C288.380768,811.283569 281.013916,811.008484 274.584625,812.870422 
	C271.034821,813.898438 268.583374,813.006592 265.824158,810.341614 
	C248.568069,793.674927 230.880798,777.453125 213.690674,760.719971 
	C186.478317,734.230774 159.505051,707.495239 132.511200,680.782532 
	C120.499924,668.896423 111.844345,654.819397 105.696907,639.090271 
	C100.919189,626.865784 95.783844,614.780518 90.746216,602.658752 
	C89.766205,600.300537 88.504189,598.059509 87.282349,595.582153 
	C84.150581,598.261169 81.907967,601.695801 77.856468,598.537354 
	C73.755760,595.340454 71.174675,586.823608 73.114067,582.743164 
	C75.676491,577.351868 79.736099,578.732178 84.334671,581.108215 
	C81.982468,564.569763 80.331505,548.666748 77.317444,533.026428 
	C74.529205,518.558044 74.808594,505.113647 83.051712,492.287750 
	C85.294777,488.797638 86.536789,484.291718 87.031006,480.109314 
	C90.800720,448.207581 94.512344,416.295197 97.776939,384.338593 
	C102.366920,339.407990 118.946075,299.432190 146.398178,263.773712 
	C164.984009,239.631943 186.935455,218.716309 209.381531,198.307968 
	C220.578506,188.127533 231.241776,176.870789 243.905396,168.892914 
	C271.749146,151.351761 300.342621,134.903290 329.305573,119.259476 
	C370.181396,97.181168 414.078583,87.361778 460.663788,90.440643 
	C464.619507,90.702087 468.686829,90.382515 472.611938,89.761665 
	C480.036896,88.587242 485.571991,84.560555 486.410950,76.776581 
	C487.143524,69.979790 486.563690,63.041553 486.563690,55.616470 
	C479.705963,58.767387 474.589752,55.755615 469.713623,51.902782 
	C466.969360,49.734417 464.396179,47.332188 461.544739,45.320473 
	C455.938507,41.365223 450.212158,38.974716 443.217102,42.689941 
	C438.855896,45.006287 433.902039,46.201019 429.226379,47.932144 
	C406.275299,56.429657 383.410980,65.107277 363.442810,79.775787 
	C363.118958,80.013687 362.515625,79.871140 361.576538,79.940636 
	C361.984344,75.488060 362.624329,71.213478 362.704956,66.928375 
	C362.804047,61.661400 359.702332,59.861221 355.293762,62.696278 
	C352.382812,64.568230 349.905792,67.128677 347.291138,69.444817 
	C341.188751,74.850433 335.240875,80.438324 328.994354,85.670547 
	C325.110779,88.923500 320.588196,89.673515 315.392029,88.665276 
	C311.412292,87.893074 307.023682,87.945114 303.033051,88.729721 
	C283.413147,92.587250 270.661316,104.849815 263.178253,122.876839 
	C261.872681,126.022041 260.456787,127.451759 257.168915,127.288902 
	C250.703796,126.968674 244.170670,127.231110 237.779175,126.390007 
	C226.779205,124.942444 217.206604,126.582909 208.825012,134.741623 
	C185.909607,157.047668 162.751083,179.107391 139.468414,201.030548 
	C132.808517,207.301544 128.321655,214.551331 125.910194,223.268677 
	C123.337280,232.569641 119.056946,240.942062 112.063362,247.751633 
	C101.802780,257.742249 92.008911,268.280334 81.155701,277.581024 
	C52.238392,302.361755 33.635151,332.998810 26.902910,370.520721 
	C21.969353,398.017731 17.703556,425.634094 12.898345,453.155029 
	C12.278715,456.703888 12.766708,459.489410 14.432152,462.543579 
	C31.492109,493.828796 45.022091,526.397705 50.544945,561.900269 
	C51.991440,571.198792 49.434948,573.968140 40.169308,572.279358 
	C39.937775,572.237183 39.643810,572.537598 39.250038,572.746643 
	C38.733273,587.707397 38.895882,602.418945 45.000866,616.775330 
	C65.678978,665.401489 89.659622,712.668274 105.710281,763.215271 
	C106.016136,764.178406 106.846977,765.555664 107.625961,765.700378 
	C118.876617,767.790771 121.703545,776.389771 124.002335,785.859497 
	C126.307976,795.357361 128.497879,805.023193 132.200912,814.013062 
	C140.125076,833.250488 152.755905,848.642151 173.736816,854.098999 
	C182.390274,856.349609 191.853714,855.647156 200.960007,855.953735 
	C211.855072,856.320679 222.040390,858.323914 230.674194,865.682983 
	C245.301041,878.150146 262.448303,883.286560 281.508301,882.595520 
	C282.782196,882.549255 284.250549,882.646057 285.330078,883.229004 
	C307.861969,895.396912 330.424683,907.512024 352.794098,919.973572 
	C358.136658,922.949707 362.796997,927.250305 369.181427,919.209167 
	C369.181427,925.352661 369.181427,929.556763 369.181427,933.546143 
	C388.491638,931.855469 407.191620,929.925171 425.936096,928.647705 
	C452.167206,926.860046 478.168030,928.366089 503.670654,935.478455 
	C506.058105,936.144226 508.813324,935.528259 511.396027,935.449585 
	C518.149292,935.243958 525.344299,933.416016 531.553162,935.144531 
	C541.503479,937.914551 550.727295,943.215820 560.409851,947.065491 
	C564.166138,948.558899 568.295715,949.426025 572.328552,949.812134 
	C575.565002,950.121948 577.151550,947.962769 576.288696,944.566101 
	C575.964172,943.288757 575.582458,942.026062 575.147583,940.473755 
	C576.932861,939.567810 578.599548,938.365295 580.457581,937.840576 
	C588.910278,935.453674 597.502686,933.532104 605.878418,930.911377 
	C613.448364,928.542725 618.720032,930.802307 622.828308,937.290649 
	C624.322266,939.650085 626.269897,941.850220 628.419861,943.628052 
	C630.331909,945.209229 632.809998,946.105896 635.654419,947.636169 
	C635.654419,943.832886 635.654541,941.185242 635.654419,938.537598 
	C635.653870,925.819946 639.101624,922.516724 651.823730,923.115356 
	C655.402039,923.283752 658.975464,923.557190 662.963623,923.808411 
	C662.726501,920.470276 662.435425,917.840515 662.374939,915.205505 
	C662.262634,910.314148 662.681641,905.679749 666.520935,901.847107 
	C672.765381,895.613281 678.726562,889.095520 684.802490,882.693054 
	C691.787598,875.332642 698.729187,867.921204 708.131348,863.104736 
	C712.787720,868.030884 717.361206,872.869324 722.706604,878.524414 
	C722.886108,869.621338 720.207703,863.223083 715.311157,857.650513 
	C713.334900,855.401306 710.965942,853.398315 709.475769,850.870605 
	C708.897156,849.889038 709.920410,846.585754 710.775635,846.346313 
	C720.928589,843.504333 730.930542,836.158264 742.113770,845.548035 
	C738.636658,836.150024 741.199463,832.084900 750.370117,831.056152 
	C752.677673,830.797302 755.030273,830.857727 757.360229,830.894592 
	C769.380920,831.084717 774.668640,826.892578 776.034424,815.007507 
	C776.620911,809.903564 778.625061,806.035095 781.937866,802.306335 
	C812.173096,768.274719 835.641968,729.968506 853.526489,688.185120 
	C857.620850,678.619446 861.430054,668.931763 865.370483,659.300232 
	C865.024414,659.043030 864.678284,658.785828 864.332214,658.528625 
	C862.536194,659.857727 860.691895,661.126709 858.952026,662.525635 
	C848.604736,670.845459 840.004272,680.696472 832.778503,691.841370 
	C830.848328,694.818481 828.371521,698.017578 825.352112,699.521790 
	C823.112610,700.637512 819.589478,699.176392 816.399048,698.837769 
	C814.924255,703.444092 813.329651,708.424438 811.735107,713.404785 
	C811.549194,713.349731 811.363281,713.294739 811.177368,713.239685 
	C811.177368,709.590332 811.177368,705.940979 811.177368,701.745056 
	C809.659668,702.867188 808.607300,703.625122 807.575989,704.410522 
	C783.332703,722.874573 759.476501,741.876404 734.750732,759.669800 
	C705.166870,780.959290 674.922119,801.336853 644.791748,821.856934 
	C634.029297,829.186584 628.557739,827.768921 621.179749,816.797668 
	C618.762024,818.840210 616.379822,820.875061 613.972961,822.880432 
	C611.208313,825.183899 608.234558,829.085571 604.647095,826.571777 
	C602.547607,825.100525 602.508545,820.689087 601.313416,816.867737 
	C598.185730,816.867737 593.337402,815.636719 589.715454,817.216797 
	C586.153748,818.770691 583.836548,823.177307 580.826050,826.494324 
	C579.469604,824.636963 577.718018,822.238525 575.255676,818.866882 
	C574.269653,824.574768 573.518066,828.925110 572.694763,833.691101 
	C571.192200,831.265076 570.674255,826.916138 566.851440,830.336304 
	C564.697571,832.263367 563.242371,834.971191 561.743774,836.966003 
	C557.579468,832.011230 553.333008,826.958679 548.925598,821.395874 
M446.979309,486.572601 
	C446.979309,490.645844 446.979309,494.719086 446.979309,498.626831 
	C452.099030,498.626831 456.520020,498.626831 461.424377,498.626831 
	C460.866333,483.398346 460.320160,468.493683 459.762726,453.282013 
	C455.494324,453.282013 451.701141,453.457825 447.932526,453.229095 
	C444.626831,453.028503 442.729980,454.386749 441.323608,457.288391 
	C439.307648,461.447815 436.956055,465.444580 434.374512,470.198120 
	C432.560547,464.759033 431.116852,459.903320 429.262787,455.209717 
	C428.743530,453.895111 427.039459,452.189331 425.837402,452.155975 
	C421.229156,452.028137 416.604034,452.507568 411.508728,452.786438 
	C411.508728,468.903992 411.508728,484.616730 411.508728,500.760925 
	C415.055603,500.477936 418.586334,500.196228 422.074158,499.917938 
	C422.074158,490.938141 422.074158,482.379883 422.074158,473.821625 
	C422.312042,473.727325 422.549957,473.633057 422.787842,473.538757 
	C426.437714,481.883362 430.087585,490.227966 434.085602,499.368530 
	C438.092010,490.418488 441.758911,482.226807 445.425812,474.035126 
	C445.921417,474.109619 446.417023,474.184113 446.912628,474.258606 
	C446.912628,478.041718 446.912628,481.824829 446.979309,486.572601 
M343.973511,468.498993 
	C337.724182,468.753143 331.298676,468.181763 325.269806,469.468719 
	C317.588470,471.108337 314.712280,477.457642 315.930206,486.841949 
	C316.701599,492.785858 321.552887,496.845001 328.749969,496.985199 
	C336.894440,497.143921 345.047821,496.795502 353.195007,496.883484 
	C356.588837,496.920135 357.875153,495.690002 357.928680,492.250153 
	C358.114929,480.278992 358.556671,468.311981 358.852783,456.342163 
	C358.883148,455.114960 358.588440,453.879761 358.421173,452.447937 
	C354.062561,452.939362 350.162354,453.379089 345.907471,453.858795 
	C346.292145,458.118530 346.802643,461.903900 346.863678,465.696503 
	C346.879974,466.706635 345.518890,467.738953 343.973511,468.498993 
M486.432007,473.976135 
	C483.281708,474.155334 480.101929,474.122559 476.986969,474.555878 
	C469.443481,475.605225 466.359467,480.825500 469.227020,488.001038 
	C469.863678,489.594116 471.910797,491.704163 473.341217,491.729553 
	C485.528107,491.945740 497.722504,491.735474 510.138611,491.651398 
	C510.471619,484.291534 510.864319,478.321716 510.979767,472.346527 
	C511.112091,465.498077 508.147491,461.060028 501.564056,459.657623 
	C490.569946,457.315643 479.490051,457.974457 468.249512,459.877258 
	C468.249512,462.955780 468.249512,465.717987 468.249512,468.915283 
	C470.099701,468.915283 471.881195,468.917603 473.662689,468.914886 
	C479.646576,468.905701 485.641785,468.685883 491.607605,469.009064 
	C493.446564,469.108673 495.205414,470.687622 497.000946,471.589203 
	C495.290466,472.328278 493.634430,473.276672 491.852234,473.739838 
	C490.442413,474.106232 488.877747,473.876862 486.432007,473.976135 
M232.456894,488.079407 
	C234.877274,488.891205 237.277176,490.311890 239.722076,490.394012 
	C245.684555,490.594360 251.666946,490.125519 257.642975,490.014221 
	C272.190369,489.743286 274.311981,487.538605 273.750977,472.836243 
	C273.656403,470.358337 273.720673,467.625458 272.693542,465.503052 
	C271.692780,463.435181 269.459106,460.608673 267.641510,460.513794 
	C256.736176,459.944397 245.794098,459.980835 234.866348,460.068512 
	C233.537445,460.079193 231.339294,461.373260 231.038712,462.478912 
	C228.758911,470.865204 227.337830,479.332703 232.456894,488.079407 
M644.779053,469.616943 
	C644.895569,474.717865 644.595825,479.874573 645.269104,484.900940 
	C645.750122,488.492645 648.210388,491.613190 652.232605,491.723053 
	C661.653503,491.980377 671.086243,491.805359 680.984985,491.805359 
	C680.738770,488.489441 680.525208,485.613586 680.335876,483.063385 
	C673.435303,483.063385 667.128967,483.170105 660.828674,483.021332 
	C657.337280,482.938904 654.646240,481.677277 655.250610,477.255463 
	C665.463806,476.779205 675.554077,476.308655 685.581116,475.841064 
	C686.544861,464.604767 684.137146,460.407349 674.452515,459.182251 
	C668.168396,458.387299 661.606750,459.121979 655.242859,459.830872 
	C650.064941,460.407654 646.527161,463.688019 644.779053,469.616943 
M687.104004,462.366241 
	C686.557495,465.471527 688.198120,466.428162 690.992737,466.634766 
	C696.792358,467.063477 702.578918,467.668640 709.814087,468.333954 
	C704.252625,472.085236 700.042480,475.029510 695.727600,477.811218 
	C688.996643,482.150452 688.764038,482.621552 690.809509,490.659515 
	C700.556885,490.659515 710.341003,490.666016 720.125061,490.647522 
	C720.927063,490.645996 721.728882,490.473907 722.759216,490.354645 
	C722.759216,487.763855 722.759216,485.365265 722.759216,482.260254 
	C716.772217,482.260254 711.017578,482.260254 705.263000,482.260254 
	C709.656250,478.842834 714.176758,476.458496 718.583496,473.879730 
	C719.753967,473.194763 721.337646,471.972504 721.421936,470.894592 
	C721.751526,466.678284 721.556580,462.420990 721.556580,458.113892 
	C710.578308,458.113892 700.290100,458.021210 690.009583,458.261353 
	C689.013916,458.284637 688.066406,460.368103 687.104004,462.366241 
M222.595688,476.525482 
	C222.096207,468.442139 221.596725,460.358765 221.110199,452.485168 
	C215.912079,452.485168 211.354721,452.485168 207.061447,452.485168 
	C207.768555,461.377533 208.717331,469.796051 209.025208,478.237915 
	C209.295349,485.645477 208.102707,486.542694 200.558502,486.178619 
	C197.157959,486.014526 193.774521,485.495392 190.043060,485.101410 
	C190.043060,487.835510 189.770935,490.183044 190.136047,492.426880 
	C190.391312,493.995544 191.118164,496.111237 192.316788,496.806976 
	C205.617416,504.527832 220.556671,497.013458 222.248749,481.904694 
	C222.415298,480.417664 222.483139,478.919617 222.595688,476.525482 
M614.180054,461.794983 
	C611.253113,456.126648 606.549072,459.912231 602.319885,458.803833 
	C603.310913,468.658356 604.217590,477.673645 605.150818,486.953003 
	C608.412720,486.747864 611.124023,486.577332 614.009705,486.395844 
	C614.009705,481.578857 614.371948,477.388702 613.921570,473.287781 
	C613.303467,467.659149 617.200012,467.554535 620.776306,467.159424 
	C625.117798,466.679779 626.115234,469.515656 626.090515,473.142670 
	C626.058167,477.886871 626.082581,482.631439 626.082581,487.659241 
	C630.692444,487.291138 634.739136,486.968018 638.606995,486.659180 
	C638.606995,480.207428 639.080872,474.194794 638.491882,468.288116 
	C637.681946,460.166870 633.819580,456.736420 625.587585,457.313812 
	C621.956055,457.568573 618.491272,460.199280 614.180054,461.794983 
M285.040802,460.527710 
	C282.953918,460.365784 280.867065,460.203857 278.436066,460.015228 
	C279.389740,472.077698 280.298981,483.577942 281.234985,495.416992 
	C284.864746,495.162903 288.065918,494.938812 291.797272,494.677582 
	C291.797272,488.395050 292.045502,482.584717 291.720673,476.806610 
	C291.448853,471.971466 294.713959,471.696808 297.978424,470.928619 
	C301.274750,470.152985 303.383392,471.010254 303.531158,474.884064 
	C307.335327,474.583832 310.753937,474.314026 315.499878,473.939484 
	C314.048401,469.625702 313.917023,464.409088 311.407440,462.714600 
	C304.833496,458.275757 298.301788,462.345215 291.829224,466.010834 
	C292.931610,460.022339 288.602631,461.430298 285.040802,460.527710 
M527.926147,461.341705 
	C524.065491,460.863647 520.204834,460.385590 516.004089,459.865387 
	C516.999268,472.189026 517.927673,483.686096 518.873108,495.393860 
	C522.628723,495.152649 525.689148,494.956085 529.222900,494.729095 
	C529.222900,488.439240 529.288452,482.637177 529.198303,476.837494 
	C529.144287,473.358398 530.963501,471.529480 534.150085,471.228302 
	C536.598450,470.996918 539.946472,468.874786 540.906372,473.597137 
	C541.015381,474.133728 542.771729,474.646423 543.757263,474.633698 
	C546.381836,474.599792 549.002563,474.273010 552.987183,473.953369 
	C551.663635,469.763458 551.629456,464.580811 549.157166,462.818512 
	C542.770020,458.265686 536.283325,462.225891 530.259094,465.431793 
	C529.665466,464.021912 529.170227,462.845703 527.926147,461.341705 
M312.067352,521.621765 
	C312.863556,523.584778 313.530457,525.614929 314.501648,527.487122 
	C315.142395,528.722229 316.602997,530.819336 317.041870,530.665344 
	C320.160217,529.570862 323.109650,527.995056 326.112885,526.572632 
	C326.840820,526.731506 327.819183,528.766418 329.428101,529.640076 
	C331.132172,530.565430 333.439514,530.599915 335.475311,530.564453 
	C336.112366,530.553345 336.954315,529.140625 337.301208,528.218506 
	C338.178925,525.885315 338.163055,522.820312 339.714264,521.221863 
	C342.590363,518.258240 340.704865,517.313538 338.429779,516.328674 
	C336.854980,515.646912 335.080170,515.427185 333.313141,514.980408 
	C332.970154,518.319275 332.687531,521.070129 332.382751,524.036987 
	C329.824066,520.864807 328.169128,516.752625 325.724762,516.212402 
	C320.664459,515.093994 323.010956,522.140137 319.007477,523.842712 
	C318.694794,522.129883 318.370819,520.502380 318.108032,518.865051 
	C317.924896,517.723877 317.825592,516.569397 317.688812,515.420776 
	C315.372070,516.085266 313.021698,516.666504 310.799255,517.564392 
	C310.611420,517.640259 311.279846,519.835571 312.067352,521.621765 
M487.360657,522.652405 
	C487.942810,520.763123 488.524994,518.873840 489.107178,516.984497 
	C490.965057,516.202881 493.091614,515.043823 493.579254,513.398926 
	C494.582611,510.014191 491.579987,509.698761 489.296661,509.603729 
	C484.920044,509.421631 480.530518,509.550781 476.309113,509.550781 
	C476.642181,515.271851 477.476349,519.973694 477.045288,524.556519 
	C476.465332,530.722046 476.196075,530.883423 482.327850,531.018799 
	C484.323273,531.062866 486.398682,531.360840 488.294922,530.923950 
	C490.183228,530.488831 492.203583,529.589111 493.536224,528.261108 
	C494.116943,527.682373 493.126007,525.526611 492.848877,524.087036 
	C491.143616,524.585449 489.443085,525.101013 487.730591,525.573181 
	C487.100281,525.746948 486.236359,526.131226 485.838837,525.870667 
	C485.023682,525.336182 484.451569,524.430847 483.779419,523.678223 
	C484.709412,523.367615 485.639404,523.057068 487.360657,522.652405 
M376.918854,483.359375 
	C377.225891,478.454132 377.532898,473.548889 377.879333,468.013702 
	C373.465332,468.376221 369.587128,468.694763 366.010559,468.988495 
	C366.010559,478.223663 366.010559,487.037994 366.010559,495.839783 
	C374.941528,495.664856 374.941467,495.664856 376.277679,487.690521 
	C376.469299,486.547180 376.661743,485.403992 376.918854,483.359375 
M196.936172,522.256531 
	C198.011230,522.699707 199.086288,523.142822 200.488297,523.720764 
	C196.991486,528.015503 194.659866,524.906616 191.317337,522.609253 
	C190.734344,525.831299 190.291046,528.281189 189.798950,531.000854 
	C193.300812,531.000854 195.891037,531.099182 198.471024,530.978638 
	C202.783463,530.777222 206.040436,527.360779 206.017258,523.233582 
	C205.990326,518.438660 202.669754,518.196472 199.116913,518.169128 
	C198.156433,518.161804 197.198334,517.844604 196.163757,517.655945 
	C195.978882,514.127136 197.827484,513.541138 200.576950,514.206726 
	C201.978928,514.546021 203.357056,514.983826 204.745956,515.377075 
	C205.051559,513.385803 205.357147,511.394562 205.672989,509.336426 
	C202.109283,509.336426 199.362335,509.032990 196.711868,509.409180 
	C192.944397,509.943939 190.264191,511.961792 189.974991,516.178894 
	C189.670303,520.621826 192.328537,521.986206 196.936172,522.256531 
M547.897278,526.740906 
	C549.670532,529.476135 551.443848,532.211304 553.118591,534.794556 
	C552.674744,535.138977 551.728210,535.873474 550.781677,536.607971 
	C551.340698,537.095642 551.940918,538.043945 552.452271,537.998291 
	C556.623047,537.625366 560.899109,537.324646 563.783020,532.804443 
	C561.706665,532.001831 560.036926,531.356445 559.599243,531.187256 
	C561.254456,525.933167 562.782532,521.082703 564.292725,516.289185 
	C560.691833,510.822601 556.817749,515.539673 553.574646,516.276855 
	C549.183472,517.275024 547.332703,521.336792 547.897278,526.740906 
M607.077820,528.453186 
	C609.323486,532.706177 612.690918,530.485901 615.662842,529.709534 
	C615.851013,529.660339 615.086914,526.819275 615.180908,525.302673 
	C615.265625,523.936462 615.643982,522.392761 616.444702,521.351746 
	C616.826050,520.855774 618.979980,520.928284 619.456787,521.488037 
	C620.161438,522.315369 620.232605,523.801575 620.272095,525.016968 
	C620.287720,525.499023 619.137390,526.012024 619.143982,526.502502 
	C619.160339,527.712219 619.329834,529.853882 619.808533,529.960754 
	C621.823425,530.410706 624.001770,530.458069 626.057007,530.181824 
	C626.616394,530.106689 627.453064,528.299866 627.303223,527.436951 
	C626.809631,524.594299 626.010986,521.792847 625.162231,519.026855 
	C624.230164,515.989258 622.056885,515.071960 618.972107,515.513489 
	C616.869385,515.814514 614.685181,515.878113 612.569641,515.688293 
	C608.173523,515.293823 607.554504,516.443542 608.537415,520.960632 
	C608.981018,522.998840 607.670532,525.418884 607.077820,528.453186 
M525.920471,530.788818 
	C527.527344,530.585754 529.134277,530.382690 531.312256,530.107422 
	C530.279846,525.730530 529.671875,521.584534 528.191956,517.777527 
	C527.710693,516.539246 525.006958,515.769836 523.220215,515.531189 
	C520.832520,515.212219 518.339905,515.789856 515.906616,515.676758 
	C511.696106,515.480896 510.867004,516.810913 512.243896,520.830627 
	C512.784424,522.408508 512.114441,524.403992 511.982605,526.208313 
	C511.887970,527.502869 511.771576,528.795837 511.664917,530.089478 
	C514.244080,530.044617 516.845886,530.155701 519.377869,529.786926 
	C519.758301,529.731628 519.934692,527.437134 519.985229,526.169617 
	C520.046692,524.628479 519.701477,523.048889 519.951965,521.556396 
	C520.001404,521.262024 521.957092,521.287537 523.033630,521.165527 
	C523.111450,522.745544 523.717224,524.552856 523.155396,525.857422 
	C522.041016,528.444885 522.347717,529.948059 525.920471,530.788818 
M358.084625,528.313538 
	C361.470459,533.640808 366.738251,529.712891 371.039795,530.756958 
	C374.544800,531.607788 374.617767,528.806641 373.663116,525.880005 
	C373.045410,523.986328 373.298523,521.776001 373.342682,519.711487 
	C373.368225,518.517151 374.195312,517.157410 373.820923,516.201477 
	C373.572357,515.566833 371.845612,515.290649 370.764618,515.246704 
	C368.243927,515.144348 365.604065,514.851929 363.224152,515.462036 
	C361.527313,515.897034 359.357788,517.399353 358.847992,518.913269 
	C357.944061,521.597595 358.141174,524.652649 358.084625,528.313538 
M224.428253,528.987244 
	C225.411850,529.585571 226.324097,530.427673 227.391388,530.740112 
	C231.985504,532.084595 236.395523,529.656860 237.615509,525.257935 
	C238.785507,521.039246 237.020737,516.760193 233.660614,515.668701 
	C229.831070,514.424744 224.907837,517.096985 223.630341,521.683167 
	C223.066330,523.708008 223.815567,526.098755 224.428253,528.987244 
M256.977661,513.414246 
	C256.243988,516.104126 253.691330,518.623413 256.819763,521.627441 
	C257.457306,522.239624 256.393524,524.593262 256.161102,526.151123 
	C255.971146,527.424500 255.851410,528.708252 255.700546,529.987366 
	C258.259216,529.963623 260.829712,530.041443 263.357025,529.747681 
	C263.591309,529.720459 263.675446,527.326660 263.609589,526.042908 
	C263.509308,524.088074 262.468994,520.765625 263.123535,520.410217 
	C268.746857,517.356995 265.656952,516.164917 261.572601,514.945984 
	C261.711853,514.493713 261.851105,514.041504 261.990326,513.589294 
	C263.791962,513.283203 265.593567,512.977112 267.704163,512.618530 
	C268.322418,510.486633 268.344147,508.208801 264.983795,508.088898 
	C261.556183,507.966522 257.163605,506.657349 256.977661,513.414246 
M281.889343,516.050537 
	C282.856873,520.204285 283.557861,524.445679 284.884308,528.481506 
	C285.790314,531.238037 292.091675,532.192017 293.845825,529.929077 
	C294.662476,528.875549 294.537079,527.091736 294.893402,525.375305 
	C292.761810,525.601868 291.380920,525.748657 289.700958,525.927185 
	C289.587219,523.288391 287.290192,520.456726 291.814697,519.493591 
	C292.233154,519.404480 292.762268,517.143616 292.349365,516.361206 
	C291.249969,514.278259 289.664001,512.452087 287.748535,509.799500 
	C287.256042,509.822662 285.704895,509.895599 284.950745,509.931061 
	C283.918365,512.261108 283.191589,513.901367 281.889343,516.050537 
M715.801392,530.876709 
	C715.990112,529.235413 716.831238,527.292114 716.238770,526.012512 
	C714.766541,522.832764 715.021973,521.335205 718.817078,520.748535 
	C720.455688,520.495300 721.902344,519.000000 723.436157,518.068909 
	C723.232849,517.362000 723.029541,516.655090 722.826294,515.948120 
	C718.322449,515.819275 713.817078,515.613464 709.317871,515.706482 
	C708.955261,515.713989 707.996216,518.302124 708.401672,518.793213 
	C710.578918,521.430420 711.195496,523.668335 708.574890,526.496033 
	C708.153320,526.950928 709.461792,529.787781 710.620056,530.685791 
	C711.573364,531.424988 713.489502,530.922424 715.801392,530.876709 
M391.813385,526.936218 
	C392.485565,528.218689 393.015686,530.469849 393.857819,530.593323 
	C395.982513,530.904968 398.247681,530.258423 400.456573,529.995789 
	C400.135468,528.608948 399.864319,527.208130 399.482574,525.838135 
	C398.735657,523.157593 398.423950,521.041748 402.366913,520.722168 
	C403.951904,520.593750 405.416229,518.976501 406.935486,518.036926 
	C406.736420,517.418518 406.537323,516.800110 406.338257,516.181702 
	C402.831696,515.850830 399.329376,515.364197 395.816437,515.269592 
	C394.500977,515.234070 393.160950,516.111023 391.832123,516.571960 
	C392.251282,517.699219 393.045197,518.838623 393.009064,519.951050 
	C392.940704,522.053162 392.395142,524.139648 391.813385,526.936218 
M587.996033,525.103149 
	C588.334839,523.264282 588.630981,521.416199 589.028198,519.590027 
	C589.272278,518.468018 589.671143,517.379761 590.000488,516.276428 
	C587.463806,516.053528 584.926147,515.728027 582.392029,515.754395 
	C582.115662,515.757263 581.705261,517.776672 581.626831,518.880005 
	C581.452393,521.333740 581.452271,523.799805 581.374512,526.260559 
	C581.335205,527.501953 581.281494,528.742981 581.234253,529.984131 
	C583.778503,530.072754 586.322693,530.161316 588.866943,530.249939 
	C588.684814,528.781311 588.502625,527.312622 587.996033,525.103149 
M590.787781,452.701294 
	C585.336060,452.158020 581.864258,455.314575 583.834167,459.446747 
	C584.729919,461.325745 587.283752,463.356567 589.227783,463.509583 
	C590.928589,463.643463 593.541626,461.627045 594.480896,459.878113 
	C596.059875,456.937897 594.284180,454.516663 590.787781,452.701294 
M371.531494,452.809143 
	C366.789032,452.021484 363.712738,453.582458 364.129639,457.254669 
	C364.378662,459.447815 366.198730,462.580780 368.000244,463.162781 
	C369.777344,463.736938 373.193115,462.236542 374.511444,460.561401 
	C376.734863,457.736206 375.002106,454.984985 371.531494,452.809143 
z"/>
<path fill="#FF861C" opacity="1.000000" stroke="none" 
	d="
M549.086548,821.906189 
	C553.333008,826.958679 557.579468,832.011230 561.743774,836.966003 
	C563.242371,834.971191 564.697571,832.263367 566.851440,830.336304 
	C570.674255,826.916138 571.192200,831.265076 572.694763,833.691101 
	C573.518066,828.925110 574.269653,824.574768 575.255676,818.866882 
	C577.718018,822.238525 579.469604,824.636963 580.826050,826.494324 
	C583.836548,823.177307 586.153748,818.770691 589.715454,817.216797 
	C593.337402,815.636719 598.185730,816.867737 601.313416,816.867737 
	C602.508545,820.689087 602.547607,825.100525 604.647095,826.571777 
	C608.234558,829.085571 611.208313,825.183899 613.972961,822.880432 
	C616.379822,820.875061 618.762024,818.840210 621.179749,816.797668 
	C628.557739,827.768921 634.029297,829.186584 644.791748,821.856934 
	C674.922119,801.336853 705.166870,780.959290 734.750732,759.669800 
	C759.476501,741.876404 783.332703,722.874573 807.575989,704.410522 
	C808.607300,703.625122 809.659668,702.867188 811.177368,701.745056 
	C811.177368,705.940979 811.177368,709.590332 811.177368,713.239685 
	C811.363281,713.294739 811.549194,713.349731 811.735107,713.404785 
	C813.329651,708.424438 814.924255,703.444092 816.399048,698.837769 
	C819.589478,699.176392 823.112610,700.637512 825.352112,699.521790 
	C828.371521,698.017578 830.848328,694.818481 832.778503,691.841370 
	C840.004272,680.696472 848.604736,670.845459 858.952026,662.525635 
	C860.691895,661.126709 862.536194,659.857727 864.332214,658.528625 
	C864.678284,658.785828 865.024414,659.043030 865.370483,659.300232 
	C861.430054,668.931763 857.620850,678.619446 853.526489,688.185120 
	C835.641968,729.968506 812.173096,768.274719 781.937866,802.306335 
	C778.625061,806.035095 776.620911,809.903564 776.034424,815.007507 
	C774.668640,826.892578 769.380920,831.084717 757.360229,830.894592 
	C755.030273,830.857727 752.677673,830.797302 750.370117,831.056152 
	C741.199463,832.084900 738.636658,836.150024 742.113770,845.548035 
	C730.930542,836.158264 720.928589,843.504333 710.775635,846.346313 
	C709.920410,846.585754 708.897156,849.889038 709.475769,850.870605 
	C710.965942,853.398315 713.334900,855.401306 715.311157,857.650513 
	C720.207703,863.223083 722.886108,869.621338 722.706604,878.524414 
	C717.361206,872.869324 712.787720,868.030884 708.131348,863.104736 
	C698.729187,867.921204 691.787598,875.332642 684.802490,882.693054 
	C678.726562,889.095520 672.765381,895.613281 666.520935,901.847107 
	C662.681641,905.679749 662.262634,910.314148 662.374939,915.205505 
	C662.435425,917.840515 662.726501,920.470276 662.963623,923.808411 
	C658.975464,923.557190 655.402039,923.283752 651.823730,923.115356 
	C639.101624,922.516724 635.653870,925.819946 635.654419,938.537598 
	C635.654541,941.185242 635.654419,943.832886 635.654419,947.636169 
	C632.809998,946.105896 630.331909,945.209229 628.419861,943.628052 
	C626.269897,941.850220 624.322266,939.650085 622.828308,937.290649 
	C618.720032,930.802307 613.448364,928.542725 605.878418,930.911377 
	C597.502686,933.532104 588.910278,935.453674 580.457581,937.840576 
	C578.599548,938.365295 576.932861,939.567810 575.147583,940.473755 
	C575.582458,942.026062 575.964172,943.288757 576.288696,944.566101 
	C577.151550,947.962769 575.565002,950.121948 572.328552,949.812134 
	C568.295715,949.426025 564.166138,948.558899 560.409851,947.065491 
	C550.727295,943.215820 541.503479,937.914551 531.553162,935.144531 
	C525.344299,933.416016 518.149292,935.243958 511.396027,935.449585 
	C508.813324,935.528259 506.058105,936.144226 503.670654,935.478455 
	C478.168030,928.366089 452.167206,926.860046 425.936096,928.647705 
	C407.191620,929.925171 388.491638,931.855469 369.181427,933.546143 
	C369.181427,929.556763 369.181427,925.352661 369.181427,919.209167 
	C362.796997,927.250305 358.136658,922.949707 352.794098,919.973572 
	C330.424683,907.512024 307.861969,895.396912 285.330078,883.229004 
	C284.250549,882.646057 282.782196,882.549255 281.508301,882.595520 
	C262.448303,883.286560 245.301041,878.150146 230.674194,865.682983 
	C222.040390,858.323914 211.855072,856.320679 200.960007,855.953735 
	C191.853714,855.647156 182.390274,856.349609 173.736816,854.098999 
	C152.755905,848.642151 140.125076,833.250488 132.200912,814.013062 
	C128.497879,805.023193 126.307976,795.357361 124.002335,785.859497 
	C121.703545,776.389771 118.876617,767.790771 107.625961,765.700378 
	C106.846977,765.555664 106.016136,764.178406 105.710281,763.215271 
	C89.659622,712.668274 65.678978,665.401489 45.000866,616.775330 
	C38.895882,602.418945 38.733273,587.707397 39.250038,572.746643 
	C39.643810,572.537598 39.937775,572.237183 40.169308,572.279358 
	C49.434948,573.968140 51.991440,571.198792 50.544945,561.900269 
	C45.022091,526.397705 31.492109,493.828796 14.432152,462.543579 
	C12.766708,459.489410 12.278715,456.703888 12.898345,453.155029 
	C17.703556,425.634094 21.969353,398.017731 26.902910,370.520721 
	C33.635151,332.998810 52.238392,302.361755 81.155701,277.581024 
	C92.008911,268.280334 101.802780,257.742249 112.063362,247.751633 
	C119.056946,240.942062 123.337280,232.569641 125.910194,223.268677 
	C128.321655,214.551331 132.808517,207.301544 139.468414,201.030548 
	C162.751083,179.107391 185.909607,157.047668 208.825012,134.741623 
	C217.206604,126.582909 226.779205,124.942444 237.779175,126.390007 
	C244.170670,127.231110 250.703796,126.968674 257.168915,127.288902 
	C260.456787,127.451759 261.872681,126.022041 263.178253,122.876839 
	C270.661316,104.849815 283.413147,92.587250 303.033051,88.729721 
	C307.023682,87.945114 311.412292,87.893074 315.392029,88.665276 
	C320.588196,89.673515 325.110779,88.923500 328.994354,85.670547 
	C335.240875,80.438324 341.188751,74.850433 347.291138,69.444817 
	C349.905792,67.128677 352.382812,64.568230 355.293762,62.696278 
	C359.702332,59.861221 362.804047,61.661400 362.704956,66.928375 
	C362.624329,71.213478 361.984344,75.488060 361.576538,79.940636 
	C362.515625,79.871140 363.118958,80.013687 363.442810,79.775787 
	C383.410980,65.107277 406.275299,56.429657 429.226379,47.932144 
	C433.902039,46.201019 438.855896,45.006287 443.217102,42.689941 
	C450.212158,38.974716 455.938507,41.365223 461.544739,45.320473 
	C464.396179,47.332188 466.969360,49.734417 469.713623,51.902782 
	C474.589752,55.755615 479.705963,58.767387 486.563690,55.616470 
	C486.563690,63.041553 487.143524,69.979790 486.410950,76.776581 
	C485.571991,84.560555 480.036896,88.587242 472.611938,89.761665 
	C468.686829,90.382515 464.619507,90.702087 460.663788,90.440643 
	C414.078583,87.361778 370.181396,97.181168 329.305573,119.259476 
	C300.342621,134.903290 271.749146,151.351761 243.905396,168.892914 
	C231.241776,176.870789 220.578506,188.127533 209.381531,198.307968 
	C186.935455,218.716309 164.984009,239.631943 146.398178,263.773712 
	C118.946075,299.432190 102.366920,339.407990 97.776939,384.338593 
	C94.512344,416.295197 90.800720,448.207581 87.031006,480.109314 
	C86.536789,484.291718 85.294777,488.797638 83.051712,492.287750 
	C74.808594,505.113647 74.529205,518.558044 77.317444,533.026428 
	C80.331505,548.666748 81.982468,564.569763 84.334671,581.108215 
	C79.736099,578.732178 75.676491,577.351868 73.114067,582.743164 
	C71.174675,586.823608 73.755760,595.340454 77.856468,598.537354 
	C81.907967,601.695801 84.150581,598.261169 87.282349,595.582153 
	C88.504189,598.059509 89.766205,600.300537 90.746216,602.658752 
	C95.783844,614.780518 100.919189,626.865784 105.696907,639.090271 
	C111.844345,654.819397 120.499924,668.896423 132.511200,680.782532 
	C159.505051,707.495239 186.478317,734.230774 213.690674,760.719971 
	C230.880798,777.453125 248.568069,793.674927 265.824158,810.341614 
	C268.583374,813.006592 271.034821,813.898438 274.584625,812.870422 
	C281.013916,811.008484 288.380768,811.283569 292.582703,804.540466 
	C295.390045,810.482361 292.960510,814.634277 283.282806,820.555115 
	C307.463257,836.333557 333.614868,846.121399 362.582092,847.919922 
	C397.388153,850.081116 431.595917,856.052917 465.460968,864.234741 
	C468.364563,864.936218 471.652405,864.627075 474.670624,864.176819 
	C490.115997,861.872620 505.500061,859.133484 520.974609,857.062012 
	C526.351624,856.342224 530.892273,855.059448 534.564087,850.835327 
	C536.718262,848.357178 539.623474,846.546814 542.010254,844.248413 
	C542.945923,843.347351 543.736816,842.002014 543.984558,840.739441 
	C544.559143,837.811646 544.762573,834.810913 545.153931,831.525574 
	C546.608398,832.641174 547.846130,833.590576 549.083923,834.539978 
	C549.613953,834.402466 550.143982,834.264893 550.674011,834.127319 
	C550.011353,830.484314 549.348633,826.841248 548.761414,822.684692 
	C548.836853,822.171143 549.086548,821.906189 549.086548,821.906189 
M87.066422,620.432434 
	C85.696419,619.550659 84.326408,618.668823 82.956398,617.787048 
	C83.820953,621.640625 85.677803,624.560425 86.898354,627.725647 
	C88.134476,630.931213 89.052986,634.332764 89.561089,637.730713 
	C90.739601,645.611877 94.808434,650.299561 102.599182,652.175476 
	C100.750626,648.532898 98.819046,644.892212 97.037315,641.179626 
	C93.819427,634.474487 90.691071,627.726318 87.066422,620.432434 
M79.043320,637.077515 
	C79.283234,637.037964 79.540909,637.036987 79.753906,636.938965 
	C79.833946,636.902039 79.867531,636.622864 79.825729,636.483032 
	C78.457787,631.907471 77.206863,627.290161 75.621803,622.790588 
	C75.144951,621.436890 73.915634,619.828735 72.685478,619.445007 
	C71.882568,619.194580 69.849487,620.734619 69.472046,621.847290 
	C69.049576,623.092773 69.436798,625.075989 70.236702,626.187866 
	C72.833366,629.797241 75.780022,633.154907 79.043320,637.077515 
z"/>
<path fill="#FF861C" opacity="1.000000" stroke="none" 
	d="
M899.980835,405.984467 
	C896.983765,416.839508 893.114990,427.542084 891.183472,438.583557 
	C887.862366,457.567871 885.748779,476.763397 883.129089,495.870392 
	C883.017639,496.683075 882.912964,497.496643 882.502075,498.298157 
	C877.070007,476.706573 882.098450,455.263794 883.957092,432.806549 
	C882.885925,434.012573 882.560181,434.625916 882.050720,434.911041 
	C879.590576,436.287781 876.249023,439.242004 874.782104,438.509338 
	C872.527710,437.383423 870.060791,433.550964 870.307434,431.134766 
	C871.056519,423.797394 867.048035,420.323517 862.028442,416.132935 
	C848.774475,405.067688 840.095459,390.419678 832.200623,375.268280 
	C829.625793,370.326813 829.037231,365.953156 830.556458,360.247467 
	C834.789246,344.350342 833.744995,329.130341 820.648071,316.952240 
	C820.038940,316.385864 819.435913,315.792999 818.749573,315.332306 
	C791.924561,297.324036 786.532349,269.886841 785.760498,240.410904 
	C785.743530,239.762512 785.655090,239.115982 785.541138,237.776230 
	C783.609680,238.631104 781.993469,239.302307 780.415527,240.053955 
	C776.967163,241.696625 773.595032,243.512482 770.088867,245.017929 
	C763.808655,247.714417 758.156372,247.109177 752.317810,242.914871 
	C722.170349,221.257599 692.122375,199.437164 661.422546,178.582092 
	C640.111938,164.105362 617.830505,151.053802 595.892212,137.512253 
	C594.051697,136.376175 591.541016,135.998276 589.308655,135.877243 
	C573.704407,135.031372 558.408081,132.592041 544.698547,124.741547 
	C538.289612,121.071602 532.357727,116.252869 527.018982,111.113960 
	C521.083191,105.400330 519.078369,97.996391 522.568909,90.046158 
	C525.942139,82.363220 532.309692,79.187424 540.508667,78.834366 
	C548.941284,78.471260 557.431030,76.793015 565.735413,81.195961 
	C569.104858,71.868279 575.938965,69.336540 585.119873,69.701546 
	C601.235718,70.342239 617.526733,68.946716 633.480591,70.744751 
	C658.311096,73.543221 681.382751,82.987747 703.724976,93.902908 
	C732.795471,108.105125 758.617859,126.812645 779.005249,152.083725 
	C787.310974,162.378998 793.754822,174.199356 800.822754,185.465790 
	C823.189026,221.118301 845.331970,256.911743 867.870972,292.454254 
	C871.508118,298.189789 873.118469,304.088593 873.839111,310.596924 
	C876.256226,332.425446 879.136658,354.207764 881.208801,376.067535 
	C882.416809,388.811890 882.430603,401.669922 882.957886,414.477783 
	C883.031311,416.261536 882.968018,418.050873 882.968018,419.837646 
	C883.443665,420.184113 883.919312,420.530579 884.394958,420.877075 
	C886.476013,418.871887 888.604492,416.913208 890.626831,414.850433 
	C893.578491,411.839661 896.453918,408.754059 899.687073,405.855560 
	C900.012329,406.010803 899.980835,405.984467 899.980835,405.984467 
z"/>
<path fill="#FF871F" opacity="1.000000" stroke="none" 
	d="
M446.945984,486.090271 
	C446.912628,481.824829 446.912628,478.041718 446.912628,474.258606 
	C446.417023,474.184113 445.921417,474.109619 445.425812,474.035126 
	C441.758911,482.226807 438.092010,490.418488 434.085602,499.368530 
	C430.087585,490.227966 426.437714,481.883362 422.787842,473.538757 
	C422.549957,473.633057 422.312042,473.727325 422.074158,473.821625 
	C422.074158,482.379883 422.074158,490.938141 422.074158,499.917938 
	C418.586334,500.196228 415.055603,500.477936 411.508728,500.760925 
	C411.508728,484.616730 411.508728,468.903992 411.508728,452.786438 
	C416.604034,452.507568 421.229156,452.028137 425.837402,452.155975 
	C427.039459,452.189331 428.743530,453.895111 429.262787,455.209717 
	C431.116852,459.903320 432.560547,464.759033 434.374512,470.198120 
	C436.956055,465.444580 439.307648,461.447815 441.323608,457.288391 
	C442.729980,454.386749 444.626831,453.028503 447.932526,453.229095 
	C451.701141,453.457825 455.494324,453.282013 459.762726,453.282013 
	C460.320160,468.493683 460.866333,483.398346 461.424377,498.626831 
	C456.520020,498.626831 452.099030,498.626831 446.979309,498.626831 
	C446.979309,494.719086 446.979309,490.645844 446.945984,486.090271 
z"/>
<path fill="#FF8820" opacity="1.000000" stroke="none" 
	d="
M344.381836,468.630035 
	C345.518890,467.738953 346.879974,466.706635 346.863678,465.696503 
	C346.802643,461.903900 346.292145,458.118530 345.907471,453.858795 
	C350.162354,453.379089 354.062561,452.939362 358.421173,452.447937 
	C358.588440,453.879761 358.883148,455.114960 358.852783,456.342163 
	C358.556671,468.311981 358.114929,480.278992 357.928680,492.250153 
	C357.875153,495.690002 356.588837,496.920135 353.195007,496.883484 
	C345.047821,496.795502 336.894440,497.143921 328.749969,496.985199 
	C321.552887,496.845001 316.701599,492.785858 315.930206,486.841949 
	C314.712280,477.457642 317.588470,471.108337 325.269806,469.468719 
	C331.298676,468.181763 337.724182,468.753143 344.381836,468.630035 
M329.862091,486.781403 
	C330.648346,487.262573 331.447479,488.178467 332.218811,488.155609 
	C337.943726,487.985992 343.663116,487.629852 349.361542,487.333466 
	C349.361542,483.486664 349.361542,480.478790 349.361542,477.331085 
	C347.440643,477.244171 345.963684,477.124847 344.486450,477.121826 
	C341.674957,477.116028 338.855988,477.058685 336.053162,477.232971 
	C329.057983,477.667786 328.371765,478.641998 329.862091,486.781403 
z"/>
<path fill="#FF8821" opacity="1.000000" stroke="none" 
	d="
M486.906921,473.944092 
	C488.877747,473.876862 490.442413,474.106232 491.852234,473.739838 
	C493.634430,473.276672 495.290466,472.328278 497.000946,471.589203 
	C495.205414,470.687622 493.446564,469.108673 491.607605,469.009064 
	C485.641785,468.685883 479.646576,468.905701 473.662689,468.914886 
	C471.881195,468.917603 470.099701,468.915283 468.249512,468.915283 
	C468.249512,465.717987 468.249512,462.955780 468.249512,459.877258 
	C479.490051,457.974457 490.569946,457.315643 501.564056,459.657623 
	C508.147491,461.060028 511.112091,465.498077 510.979767,472.346527 
	C510.864319,478.321716 510.471619,484.291534 510.138611,491.651398 
	C497.722504,491.735474 485.528107,491.945740 473.341217,491.729553 
	C471.910797,491.704163 469.863678,489.594116 469.227020,488.001038 
	C466.359467,480.825500 469.443481,475.605225 476.986969,474.555878 
	C480.101929,474.122559 483.281708,474.155334 486.906921,473.944092 
M493.011108,485.802307 
	C494.573029,485.441040 496.134949,485.079742 497.580566,484.745361 
	C497.580566,482.175201 497.580566,480.067627 497.580566,477.702515 
	C492.888733,477.702515 488.452637,477.680328 484.016907,477.711243 
	C481.516968,477.728638 479.429504,478.010284 479.671265,481.519104 
	C479.900879,484.851471 481.225464,486.403351 484.621094,486.157898 
	C487.111847,485.977875 489.614807,485.966858 493.011108,485.802307 
z"/>
<path fill="#FF8822" opacity="1.000000" stroke="none" 
	d="
M232.195892,487.797241 
	C227.337830,479.332703 228.758911,470.865204 231.038712,462.478912 
	C231.339294,461.373260 233.537445,460.079193 234.866348,460.068512 
	C245.794098,459.980835 256.736176,459.944397 267.641510,460.513794 
	C269.459106,460.608673 271.692780,463.435181 272.693542,465.503052 
	C273.720673,467.625458 273.656403,470.358337 273.750977,472.836243 
	C274.311981,487.538605 272.190369,489.743286 257.642975,490.014221 
	C251.666946,490.125519 245.684555,490.594360 239.722076,490.394012 
	C237.277176,490.311890 234.877274,488.891205 232.195892,487.797241 
M240.772278,472.662628 
	C241.375809,476.014984 241.342621,481.924011 242.697006,482.261292 
	C247.621872,483.487762 253.174805,483.583313 258.127747,482.477936 
	C259.659576,482.136108 260.506134,476.659698 260.821442,473.451111 
	C261.218018,469.415314 259.188660,466.813538 254.687775,466.817627 
	C251.705063,466.820374 248.722534,466.645111 245.739365,466.571960 
	C242.202698,466.485229 240.508087,468.181000 240.772278,472.662628 
z"/>
<path fill="#FF8821" opacity="1.000000" stroke="none" 
	d="
M644.878540,469.222015 
	C646.527161,463.688019 650.064941,460.407654 655.242859,459.830872 
	C661.606750,459.121979 668.168396,458.387299 674.452515,459.182251 
	C684.137146,460.407349 686.544861,464.604767 685.581116,475.841064 
	C675.554077,476.308655 665.463806,476.779205 655.250610,477.255463 
	C654.646240,481.677277 657.337280,482.938904 660.828674,483.021332 
	C667.128967,483.170105 673.435303,483.063385 680.335876,483.063385 
	C680.525208,485.613586 680.738770,488.489441 680.984985,491.805359 
	C671.086243,491.805359 661.653503,491.980377 652.232605,491.723053 
	C648.210388,491.613190 645.750122,488.492645 645.269104,484.900940 
	C644.595825,479.874573 644.895569,474.717865 644.878540,469.222015 
M664.779785,463.979126 
	C658.559814,464.737610 657.675598,465.837036 658.518555,471.480713 
	C664.919678,471.480713 671.274902,471.480713 677.739563,471.480713 
	C676.243835,464.932709 674.721008,464.044067 664.779785,463.979126 
z"/>
<path fill="#FF8822" opacity="1.000000" stroke="none" 
	d="
M687.100281,461.930725 
	C688.066406,460.368103 689.013916,458.284637 690.009583,458.261353 
	C700.290100,458.021210 710.578308,458.113892 721.556580,458.113892 
	C721.556580,462.420990 721.751526,466.678284 721.421936,470.894592 
	C721.337646,471.972504 719.753967,473.194763 718.583496,473.879730 
	C714.176758,476.458496 709.656250,478.842834 705.263000,482.260254 
	C711.017578,482.260254 716.772217,482.260254 722.759216,482.260254 
	C722.759216,485.365265 722.759216,487.763855 722.759216,490.354645 
	C721.728882,490.473907 720.927063,490.645996 720.125061,490.647522 
	C710.341003,490.666016 700.556885,490.659515 690.809509,490.659515 
	C688.764038,482.621552 688.996643,482.150452 695.727600,477.811218 
	C700.042480,475.029510 704.252625,472.085236 709.814087,468.333954 
	C702.578918,467.668640 696.792358,467.063477 690.992737,466.634766 
	C688.198120,466.428162 686.557495,465.471527 687.100281,461.930725 
z"/>
<path fill="#FF8820" opacity="1.000000" stroke="none" 
	d="
M222.596237,476.976074 
	C222.483139,478.919617 222.415298,480.417664 222.248749,481.904694 
	C220.556671,497.013458 205.617416,504.527832 192.316788,496.806976 
	C191.118164,496.111237 190.391312,493.995544 190.136047,492.426880 
	C189.770935,490.183044 190.043060,487.835510 190.043060,485.101410 
	C193.774521,485.495392 197.157959,486.014526 200.558502,486.178619 
	C208.102707,486.542694 209.295349,485.645477 209.025208,478.237915 
	C208.717331,469.796051 207.768555,461.377533 207.061447,452.485168 
	C211.354721,452.485168 215.912079,452.485168 221.110199,452.485168 
	C221.596725,460.358765 222.096207,468.442139 222.596237,476.976074 
z"/>
<path fill="#FF8821" opacity="1.000000" stroke="none" 
	d="
M583.959229,490.866241 
	C583.959229,492.998810 583.959229,495.131378 583.959229,497.491302 
	C577.560303,497.491302 571.559326,498.150330 565.830627,497.188232 
	C563.307800,496.764526 560.197632,493.397552 559.376648,490.741730 
	C558.040466,486.418701 558.510193,481.563507 557.913330,476.972443 
	C557.690857,475.261200 556.613586,473.661102 555.102966,472.140228 
	C555.157837,468.591766 552.297119,464.000916 557.766785,461.239349 
	C558.839172,460.697906 558.274048,456.913086 558.480835,454.423035 
	C562.891174,454.423035 567.235107,454.423035 571.862549,454.423035 
	C571.862549,457.553375 571.862549,460.180634 571.862549,463.057983 
	C573.569092,463.560669 575.076172,464.004608 576.876099,464.534821 
	C576.403931,467.849213 578.333130,472.313782 571.996155,472.173676 
	C571.826904,473.620483 571.589844,474.902618 571.539368,476.192017 
	C570.956848,491.067657 571.652039,488.485016 583.607178,488.448303 
	C583.988708,489.609131 583.973999,490.237701 583.959229,490.866241 
z"/>
<path fill="#FF8820" opacity="1.000000" stroke="none" 
	d="
M614.565430,461.773132 
	C618.491272,460.199280 621.956055,457.568573 625.587585,457.313812 
	C633.819580,456.736420 637.681946,460.166870 638.491882,468.288116 
	C639.080872,474.194794 638.606995,480.207428 638.606995,486.659180 
	C634.739136,486.968018 630.692444,487.291138 626.082581,487.659241 
	C626.082581,482.631439 626.058167,477.886871 626.090515,473.142670 
	C626.115234,469.515656 625.117798,466.679779 620.776306,467.159424 
	C617.200012,467.554535 613.303467,467.659149 613.921570,473.287781 
	C614.371948,477.388702 614.009705,481.578857 614.009705,486.395844 
	C611.124023,486.577332 608.412720,486.747864 605.150818,486.953003 
	C604.217590,477.673645 603.310913,468.658356 602.319885,458.803833 
	C606.549072,459.912231 611.253113,456.126648 614.565430,461.773132 
z"/>
<path fill="#FF8822" opacity="1.000000" stroke="none" 
	d="
M285.459167,460.619659 
	C288.602631,461.430298 292.931610,460.022339 291.829224,466.010834 
	C298.301788,462.345215 304.833496,458.275757 311.407440,462.714600 
	C313.917023,464.409088 314.048401,469.625702 315.499878,473.939484 
	C310.753937,474.314026 307.335327,474.583832 303.531158,474.884064 
	C303.383392,471.010254 301.274750,470.152985 297.978424,470.928619 
	C294.713959,471.696808 291.448853,471.971466 291.720673,476.806610 
	C292.045502,482.584717 291.797272,488.395050 291.797272,494.677582 
	C288.065918,494.938812 284.864746,495.162903 281.234985,495.416992 
	C280.298981,483.577942 279.389740,472.077698 278.436066,460.015228 
	C280.867065,460.203857 282.953918,460.365784 285.459167,460.619659 
z"/>
<path fill="#FF8820" opacity="1.000000" stroke="none" 
	d="
M528.300537,461.505585 
	C529.170227,462.845703 529.665466,464.021912 530.259094,465.431793 
	C536.283325,462.225891 542.770020,458.265686 549.157166,462.818512 
	C551.629456,464.580811 551.663635,469.763458 552.987183,473.953369 
	C549.002563,474.273010 546.381836,474.599792 543.757263,474.633698 
	C542.771729,474.646423 541.015381,474.133728 540.906372,473.597137 
	C539.946472,468.874786 536.598450,470.996918 534.150085,471.228302 
	C530.963501,471.529480 529.144287,473.358398 529.198303,476.837494 
	C529.288452,482.637177 529.222900,488.439240 529.222900,494.729095 
	C525.689148,494.956085 522.628723,495.152649 518.873108,495.393860 
	C517.927673,483.686096 516.999268,472.189026 516.004089,459.865387 
	C520.204834,460.385590 524.065491,460.863647 528.300537,461.505585 
z"/>
<path fill="#934C1E" opacity="1.000000" stroke="none" 
	d="
M311.808899,521.333984 
	C311.279846,519.835571 310.611420,517.640259 310.799255,517.564392 
	C313.021698,516.666504 315.372070,516.085266 317.688843,515.420776 
	C317.825592,516.569397 317.924896,517.723877 318.108032,518.865051 
	C318.370819,520.502380 318.694794,522.129883 319.007477,523.842712 
	C323.010956,522.140137 320.664459,515.093994 325.724762,516.212402 
	C328.169128,516.752625 329.824066,520.864807 332.382751,524.036987 
	C332.687531,521.070129 332.970154,518.319275 333.313141,514.980408 
	C335.080170,515.427185 336.854980,515.646912 338.429779,516.328674 
	C340.704865,517.313538 342.590363,518.258240 339.714264,521.221863 
	C338.163055,522.820312 338.178925,525.885315 337.301208,528.218506 
	C336.954315,529.140625 336.112366,530.553345 335.475311,530.564453 
	C333.439514,530.599915 331.132172,530.565430 329.428101,529.640076 
	C327.819183,528.766418 326.840820,526.731506 326.112885,526.572632 
	C323.109650,527.995056 320.160217,529.570862 317.041870,530.665344 
	C316.602997,530.819336 315.142395,528.722229 314.501648,527.487122 
	C313.530457,525.614929 312.863556,523.584778 311.808899,521.333984 
z"/>
<path fill="#944E20" opacity="1.000000" stroke="none" 
	d="
M486.965027,522.699463 
	C485.639404,523.057068 484.709412,523.367615 483.779419,523.678223 
	C484.451569,524.430847 485.023682,525.336182 485.838837,525.870667 
	C486.236359,526.131226 487.100281,525.746948 487.730591,525.573181 
	C489.443085,525.101013 491.143616,524.585449 492.848877,524.087036 
	C493.126007,525.526611 494.116943,527.682373 493.536224,528.261108 
	C492.203583,529.589111 490.183228,530.488831 488.294922,530.923950 
	C486.398682,531.360840 484.323273,531.062866 482.327850,531.018799 
	C476.196075,530.883423 476.465332,530.722046 477.045288,524.556519 
	C477.476349,519.973694 476.642181,515.271851 476.309113,509.550781 
	C480.530518,509.550781 484.920044,509.421631 489.296661,509.603729 
	C491.579987,509.698761 494.582611,510.014191 493.579254,513.398926 
	C493.091614,515.043823 490.965057,516.202881 489.107178,516.984497 
	C488.524994,518.873840 487.942810,520.763123 486.965027,522.699463 
M487.462036,516.975708 
	C487.341003,516.218445 487.220001,515.461182 487.098999,514.703979 
	C486.263397,514.986023 485.427795,515.268066 484.592163,515.550110 
	C485.203278,516.043579 485.814392,516.537109 487.462036,516.975708 
z"/>
<path fill="#FF8A25" opacity="1.000000" stroke="none" 
	d="
M584.360962,490.992676 
	C583.973999,490.237701 583.988708,489.609131 584.027222,488.667603 
	C584.401733,484.810425 584.857300,481.272491 585.069763,477.720001 
	C585.236633,474.929871 585.103210,472.121796 585.103210,469.014435 
	C589.130005,468.681335 592.894897,468.369904 597.789368,467.964996 
	C596.792603,476.746368 596.279724,485.148621 594.546387,493.291046 
	C594.195557,494.938904 589.231018,495.604523 585.958679,496.894379 
	C585.411072,494.250275 585.086914,492.684692 584.360962,490.992676 
z"/>
<path fill="#FF8822" opacity="1.000000" stroke="none" 
	d="
M376.886353,483.810059 
	C376.661743,485.403992 376.469299,486.547180 376.277679,487.690521 
	C374.941467,495.664856 374.941528,495.664856 366.010559,495.839783 
	C366.010559,487.037994 366.010559,478.223663 366.010559,468.988495 
	C369.587128,468.694763 373.465332,468.376221 377.879333,468.013702 
	C377.532898,473.548889 377.225891,478.454132 376.886353,483.810059 
z"/>
<path fill="#934C1E" opacity="1.000000" stroke="none" 
	d="
M196.538101,522.220581 
	C192.328537,521.986206 189.670303,520.621826 189.974991,516.178894 
	C190.264191,511.961792 192.944397,509.943939 196.711868,509.409180 
	C199.362335,509.032990 202.109283,509.336426 205.672989,509.336426 
	C205.357147,511.394562 205.051559,513.385803 204.745941,515.377075 
	C203.357056,514.983826 201.978928,514.546021 200.576950,514.206726 
	C197.827484,513.541138 195.978882,514.127136 196.163757,517.655945 
	C197.198334,517.844604 198.156433,518.161804 199.116913,518.169128 
	C202.669754,518.196472 205.990326,518.438660 206.017258,523.233582 
	C206.040436,527.360779 202.783463,530.777222 198.471024,530.978638 
	C195.891037,531.099182 193.300812,531.000854 189.798950,531.000854 
	C190.291046,528.281189 190.734344,525.831299 191.317337,522.609253 
	C194.659866,524.906616 196.991486,528.015503 200.488297,523.720764 
	C199.086288,523.142822 198.011230,522.699707 196.538101,522.220581 
z"/>
<path fill="#934C1E" opacity="1.000000" stroke="none" 
	d="
M547.830811,526.381531 
	C547.332703,521.336792 549.183472,517.275024 553.574646,516.276855 
	C556.817749,515.539673 560.691833,510.822601 564.292725,516.289185 
	C562.782532,521.082703 561.254456,525.933167 559.599243,531.187256 
	C560.036926,531.356445 561.706665,532.001831 563.783020,532.804443 
	C560.899109,537.324646 556.623047,537.625366 552.452271,537.998291 
	C551.940918,538.043945 551.340698,537.095642 550.781677,536.607971 
	C551.728210,535.873474 552.674744,535.138977 553.118591,534.794556 
	C551.443848,532.211304 549.670532,529.476135 547.830811,526.381531 
M556.519592,520.248413 
	C555.601929,521.840149 554.684265,523.431824 553.766602,525.023560 
	C554.886475,525.209045 556.416565,525.946716 557.049377,525.476624 
	C558.948059,524.066162 559.841919,522.174316 556.519592,520.248413 
z"/>
<path fill="#944E20" opacity="1.000000" stroke="none" 
	d="
M607.116882,528.059448 
	C607.670532,525.418884 608.981018,522.998840 608.537415,520.960632 
	C607.554504,516.443542 608.173523,515.293823 612.569641,515.688293 
	C614.685181,515.878113 616.869385,515.814514 618.972107,515.513489 
	C622.056885,515.071960 624.230164,515.989258 625.162231,519.026855 
	C626.010986,521.792847 626.809631,524.594299 627.303223,527.436951 
	C627.453064,528.299866 626.616394,530.106689 626.057007,530.181824 
	C624.001770,530.458069 621.823425,530.410706 619.808533,529.960754 
	C619.329834,529.853882 619.160339,527.712219 619.143982,526.502502 
	C619.137390,526.012024 620.287720,525.499023 620.272095,525.016968 
	C620.232605,523.801575 620.161438,522.315369 619.456787,521.488037 
	C618.979980,520.928284 616.826050,520.855774 616.444702,521.351746 
	C615.643982,522.392761 615.265625,523.936462 615.180908,525.302673 
	C615.086914,526.819275 615.851013,529.660339 615.662842,529.709534 
	C612.690918,530.485901 609.323486,532.706177 607.116882,528.059448 
z"/>
<path fill="#944D1F" opacity="1.000000" stroke="none" 
	d="
M525.530273,530.743652 
	C522.347717,529.948059 522.041016,528.444885 523.155396,525.857422 
	C523.717224,524.552856 523.111450,522.745544 523.033630,521.165527 
	C521.957092,521.287537 520.001404,521.262024 519.951965,521.556396 
	C519.701477,523.048889 520.046692,524.628479 519.985229,526.169617 
	C519.934692,527.437134 519.758301,529.731628 519.377869,529.786926 
	C516.845886,530.155701 514.244080,530.044617 511.664917,530.089478 
	C511.771576,528.795837 511.887970,527.502869 511.982605,526.208313 
	C512.114441,524.403992 512.784424,522.408508 512.243896,520.830627 
	C510.867004,516.810913 511.696106,515.480896 515.906616,515.676758 
	C518.339905,515.789856 520.832520,515.212219 523.220215,515.531189 
	C525.006958,515.769836 527.710693,516.539246 528.191956,517.777527 
	C529.671875,521.584534 530.279846,525.730530 531.312256,530.107422 
	C529.134277,530.382690 527.527344,530.585754 525.530273,530.743652 
z"/>
<path fill="#924A1C" opacity="1.000000" stroke="none" 
	d="
M357.981110,527.933105 
	C358.141174,524.652649 357.944061,521.597595 358.847992,518.913269 
	C359.357788,517.399353 361.527313,515.897034 363.224152,515.462036 
	C365.604065,514.851929 368.243927,515.144348 370.764618,515.246704 
	C371.845612,515.290649 373.572357,515.566833 373.820923,516.201477 
	C374.195312,517.157410 373.368225,518.517151 373.342682,519.711487 
	C373.298523,521.776001 373.045410,523.986328 373.663116,525.880005 
	C374.617767,528.806641 374.544800,531.607788 371.039795,530.756958 
	C366.738251,529.712891 361.470459,533.640808 357.981110,527.933105 
M366.813660,522.623474 
	C366.041840,520.014587 364.359589,519.393982 362.631989,521.417236 
	C361.870941,522.308594 362.330994,524.242615 362.236664,525.703247 
	C363.729828,524.917480 365.222992,524.131714 366.813660,522.623474 
z"/>
<path fill="#944E20" opacity="1.000000" stroke="none" 
	d="
M224.198425,528.655273 
	C223.815567,526.098755 223.066330,523.708008 223.630341,521.683167 
	C224.907837,517.096985 229.831070,514.424744 233.660614,515.668701 
	C237.020737,516.760193 238.785507,521.039246 237.615509,525.257935 
	C236.395523,529.656860 231.985504,532.084595 227.391388,530.740112 
	C226.324097,530.427673 225.411850,529.585571 224.198425,528.655273 
z"/>
<path fill="#924A1C" opacity="1.000000" stroke="none" 
	d="
M256.981567,512.987671 
	C257.163605,506.657349 261.556183,507.966522 264.983795,508.088898 
	C268.344147,508.208801 268.322418,510.486633 267.704163,512.618530 
	C265.593567,512.977112 263.791962,513.283203 261.990326,513.589294 
	C261.851105,514.041504 261.711853,514.493713 261.572601,514.945984 
	C265.656952,516.164917 268.746857,517.356995 263.123535,520.410217 
	C262.468994,520.765625 263.509308,524.088074 263.609589,526.042908 
	C263.675446,527.326660 263.591309,529.720459 263.357025,529.747681 
	C260.829712,530.041443 258.259216,529.963623 255.700546,529.987427 
	C255.851410,528.708252 255.971146,527.424500 256.161102,526.151123 
	C256.393524,524.593262 257.457306,522.239624 256.819763,521.627441 
	C253.691330,518.623413 256.243988,516.104126 256.981567,512.987671 
z"/>
<path fill="#944E20" opacity="1.000000" stroke="none" 
	d="
M686.581848,525.809326 
	C689.176270,524.733582 691.091797,525.729004 691.183960,528.310120 
	C691.213074,529.123718 688.558960,530.182068 687.011414,530.844238 
	C686.156250,531.210205 684.880920,531.342041 684.086365,530.965149 
	C681.417175,529.699097 677.759827,528.737854 676.623535,526.547974 
	C675.604980,524.584961 676.520935,520.201965 678.208740,518.614136 
	C680.257751,516.686340 683.971802,516.281433 687.053345,515.859558 
	C687.898315,515.743835 690.119141,518.326355 689.873230,518.977112 
	C689.147949,520.896484 687.503174,522.468323 685.589539,524.476440 
	C683.951782,524.946533 682.942749,525.116516 681.933655,525.286438 
	C682.028687,525.790100 682.123718,526.293762 682.218750,526.797424 
	C683.673096,526.468079 685.127502,526.138733 686.581848,525.809326 
z"/>
<path fill="#944E20" opacity="1.000000" stroke="none" 
	d="
M433.383423,525.405457 
	C434.826752,526.404724 436.270081,527.403992 437.713379,528.403320 
	C436.204651,529.233032 434.750916,530.199280 433.165344,530.838257 
	C432.297882,531.187866 431.207825,531.010742 430.217468,531.025146 
	C425.856781,531.088623 422.819519,529.231262 422.052429,524.775879 
	C421.365662,520.787109 424.461639,516.379333 428.815277,515.846680 
	C431.090363,515.568237 434.517975,516.166260 435.732422,517.704651 
	C437.700958,520.198303 435.539124,522.555115 432.378723,524.288086 
	C430.512299,524.873047 429.286591,525.190430 428.060883,525.507751 
	C428.244507,526.029053 428.428131,526.550293 428.611725,527.071533 
	C430.202301,526.516174 431.792847,525.960815 433.383423,525.405457 
z"/>
<path fill="#944E20" opacity="1.000000" stroke="none" 
	d="
M654.582336,525.809204 
	C656.196533,526.636963 657.810669,527.464722 659.424866,528.292480 
	C657.967896,529.161133 656.574036,530.176575 655.029175,530.840515 
	C654.174805,531.207703 652.900085,531.340637 652.104614,530.965149 
	C649.431519,529.703613 645.765320,528.749390 644.629822,526.561462 
	C643.610779,524.597900 644.534912,520.213989 646.225586,518.618958 
	C648.269958,516.690247 651.983398,516.284363 655.062683,515.860352 
	C655.904114,515.744568 658.121765,518.328857 657.875122,518.981323 
	C657.149963,520.899963 655.504395,522.470764 653.591431,524.478149 
	C651.953979,524.947083 650.944275,525.115662 649.934509,525.284241 
	C650.021667,525.790405 650.108826,526.296570 650.195984,526.802673 
	C651.658142,526.471558 653.120239,526.140381 654.582336,525.809204 
z"/>
<path fill="#934C1E" opacity="1.000000" stroke="none" 
	d="
M282.177063,515.796143 
	C283.191589,513.901367 283.918365,512.261108 284.950745,509.931061 
	C285.704895,509.895599 287.256042,509.822662 287.748535,509.799500 
	C289.664001,512.452087 291.249969,514.278259 292.349365,516.361206 
	C292.762268,517.143616 292.233154,519.404480 291.814697,519.493591 
	C287.290192,520.456726 289.587219,523.288391 289.700958,525.927185 
	C291.380920,525.748657 292.761810,525.601868 294.893402,525.375305 
	C294.537079,527.091736 294.662476,528.875549 293.845825,529.929077 
	C292.091675,532.192017 285.790314,531.238037 284.884308,528.481506 
	C283.557861,524.445679 282.856873,520.204285 282.177063,515.796143 
z"/>
<path fill="#944E20" opacity="1.000000" stroke="none" 
	d="
M715.390137,530.923462 
	C713.489502,530.922424 711.573364,531.424988 710.620056,530.685791 
	C709.461792,529.787781 708.153320,526.950928 708.574890,526.496033 
	C711.195496,523.668335 710.578918,521.430420 708.401672,518.793213 
	C707.996216,518.302124 708.955261,515.713989 709.317871,515.706482 
	C713.817078,515.613464 718.322449,515.819275 722.826294,515.948120 
	C723.029541,516.655090 723.232849,517.362000 723.436157,518.068909 
	C721.902344,519.000000 720.455688,520.495300 718.817078,520.748535 
	C715.021973,521.335205 714.766541,522.832764 716.238770,526.012512 
	C716.831238,527.292114 715.990112,529.235413 715.390137,530.923462 
z"/>
<path fill="#944D1F" opacity="1.000000" stroke="none" 
	d="
M391.930634,526.584473 
	C392.395142,524.139648 392.940704,522.053162 393.009064,519.951050 
	C393.045197,518.838623 392.251282,517.699219 391.832123,516.571960 
	C393.160950,516.111023 394.500977,515.234070 395.816437,515.269592 
	C399.329376,515.364197 402.831696,515.850830 406.338257,516.181702 
	C406.537323,516.800110 406.736420,517.418518 406.935486,518.036926 
	C405.416229,518.976501 403.951904,520.593750 402.366913,520.722168 
	C398.423950,521.041748 398.735657,523.157593 399.482574,525.838135 
	C399.864319,527.208130 400.135468,528.608948 400.456573,529.995789 
	C398.247681,530.258423 395.982513,530.904968 393.857819,530.593323 
	C393.015686,530.469849 392.485565,528.218689 391.930634,526.584473 
z"/>
<path fill="#985529" opacity="1.000000" stroke="none" 
	d="
M588.158203,525.473572 
	C588.502625,527.312622 588.684814,528.781311 588.866943,530.249939 
	C586.322693,530.161316 583.778503,530.072754 581.234253,529.984131 
	C581.281494,528.742981 581.335205,527.501953 581.374512,526.260559 
	C581.452271,523.799805 581.452393,521.333740 581.626831,518.880005 
	C581.705261,517.776672 582.115662,515.757263 582.392029,515.754395 
	C584.926147,515.728027 587.463806,516.053528 590.000488,516.276367 
	C589.671143,517.379761 589.272278,518.468018 589.028198,519.590027 
	C588.630981,521.416199 588.334839,523.264282 588.158203,525.473572 
z"/>
<path fill="#FF8A25" opacity="1.000000" stroke="none" 
	d="
M591.135986,452.839355 
	C594.284180,454.516663 596.059875,456.937897 594.480896,459.878113 
	C593.541626,461.627045 590.928589,463.643463 589.227783,463.509583 
	C587.283752,463.356567 584.729919,461.325745 583.834167,459.446747 
	C581.864258,455.314575 585.336060,452.158020 591.135986,452.839355 
z"/>
<path fill="#FF8A25" opacity="1.000000" stroke="none" 
	d="
M371.872589,452.947235 
	C375.002106,454.984985 376.734863,457.736206 374.511444,460.561401 
	C373.193115,462.236542 369.777344,463.736938 368.000244,463.162781 
	C366.198730,462.580780 364.378662,459.447815 364.129639,457.254669 
	C363.712738,453.582458 366.789032,452.021484 371.872589,452.947235 
z"/>
<path fill="#FF861C" opacity="1.000000" stroke="none" 
	d="
M548.709473,822.301147 
	C548.465637,822.078247 548.349243,821.725342 548.232910,821.372498 
	C548.463806,821.380249 548.694702,821.388062 549.006104,821.651001 
	C549.086548,821.906189 548.836853,822.171143 548.709473,822.301147 
z"/>
<path fill="#FF861C" opacity="1.000000" stroke="none" 
	d="
M900.028809,406.023651 
	C900.081421,405.832703 900.117554,405.628906 900.153687,405.425079 
	C900.221069,405.583923 900.288513,405.742798 900.168335,405.943054 
	C899.980835,405.984467 900.012329,406.010803 900.028809,406.023651 
z"/>
<path fill="#FFF7F0" opacity="1.000000" stroke="none" 
	d="
M87.295876,620.714294 
	C90.691071,627.726318 93.819427,634.474487 97.037315,641.179626 
	C98.819046,644.892212 100.750626,648.532898 102.599182,652.175476 
	C94.808434,650.299561 90.739601,645.611877 89.561089,637.730713 
	C89.052986,634.332764 88.134476,630.931213 86.898354,627.725647 
	C85.677803,624.560425 83.820953,621.640625 82.956398,617.787048 
	C84.326408,618.668823 85.696419,619.550659 87.295876,620.714294 
z"/>
<path fill="#FFF7F0" opacity="1.000000" stroke="none" 
	d="
M78.817619,636.843506 
	C75.780022,633.154907 72.833366,629.797241 70.236702,626.187866 
	C69.436798,625.075989 69.049576,623.092773 69.472046,621.847290 
	C69.849487,620.734619 71.882568,619.194580 72.685478,619.445007 
	C73.915634,619.828735 75.144951,621.436890 75.621803,622.790588 
	C77.206863,627.290161 78.457787,631.907471 79.825729,636.483032 
	C79.867531,636.622864 79.833946,636.902039 79.753906,636.938965 
	C79.540909,637.036987 79.283234,637.037964 78.817619,636.843506 
z"/>
<path fill="#FFF9F3" opacity="1.000000" stroke="none" 
	d="
M329.701477,486.374207 
	C328.371765,478.641998 329.057983,477.667786 336.053162,477.232971 
	C338.855988,477.058685 341.674957,477.116028 344.486450,477.121826 
	C345.963684,477.124847 347.440643,477.244171 349.361542,477.331085 
	C349.361542,480.478790 349.361542,483.486664 349.361542,487.333466 
	C343.663116,487.629852 337.943726,487.985992 332.218811,488.155609 
	C331.447479,488.178467 330.648346,487.262573 329.701477,486.374207 
z"/>
<path fill="#FFF9F3" opacity="1.000000" stroke="none" 
	d="
M492.561707,485.841400 
	C489.614807,485.966858 487.111847,485.977875 484.621094,486.157898 
	C481.225464,486.403351 479.900879,484.851471 479.671265,481.519104 
	C479.429504,478.010284 481.516968,477.728638 484.016907,477.711243 
	C488.452637,477.680328 492.888733,477.702515 497.580566,477.702515 
	C497.580566,480.067627 497.580566,482.175201 497.580566,484.745361 
	C496.134949,485.079742 494.573029,485.441040 492.561707,485.841400 
z"/>
<path fill="#FFFCFA" opacity="1.000000" stroke="none" 
	d="
M240.781921,472.208191 
	C240.508087,468.181000 242.202698,466.485229 245.739365,466.571960 
	C248.722534,466.645111 251.705063,466.820374 254.687775,466.817627 
	C259.188660,466.813538 261.218018,469.415314 260.821442,473.451111 
	C260.506134,476.659698 259.659576,482.136108 258.127747,482.477936 
	C253.174805,483.583313 247.621872,483.487762 242.697006,482.261292 
	C241.342621,481.924011 241.375809,476.014984 240.781921,472.208191 
z"/>
<path fill="#FFF9F3" opacity="1.000000" stroke="none" 
	d="
M665.224487,463.967468 
	C674.721008,464.044067 676.243835,464.932709 677.739563,471.480713 
	C671.274902,471.480713 664.919678,471.480713 658.518555,471.480713 
	C657.675598,465.837036 658.559814,464.737610 665.224487,463.967468 
z"/>
<path fill="#FFFFFF" opacity="1.000000" stroke="none" 
	d="
M486.943787,517.003174 
	C485.814392,516.537109 485.203278,516.043579 484.592163,515.550171 
	C485.427795,515.268066 486.263397,514.986023 487.098999,514.703979 
	C487.220001,515.461182 487.341003,516.218445 486.943787,517.003174 
z"/>
<path fill="#EFE5DF" opacity="1.000000" stroke="none" 
	d="
M556.861633,520.329956 
	C559.841919,522.174316 558.948059,524.066162 557.049377,525.476624 
	C556.416565,525.946716 554.886475,525.209045 553.766602,525.023560 
	C554.684265,523.431824 555.601929,521.840149 556.861633,520.329956 
z"/>
<path fill="#EFE5DF" opacity="1.000000" stroke="none" 
	d="
M366.764893,522.984680 
	C365.222992,524.131714 363.729828,524.917480 362.236664,525.703247 
	C362.330994,524.242615 361.870941,522.308594 362.631989,521.417236 
	C364.359589,519.393982 366.041840,520.014587 366.764893,522.984680 
z"/>
<path fill="#FFFFFF" opacity="1.000000" stroke="none" 
	d="
M686.379456,525.520569 
	C685.127502,526.138733 683.673096,526.468079 682.218750,526.797424 
	C682.123718,526.293762 682.028687,525.790100 681.933655,525.286438 
	C682.942749,525.116516 683.951782,524.946533 685.344910,524.731934 
	C685.878296,524.868774 686.027710,525.050293 686.379456,525.520569 
z"/>
<path fill="#FFFFFF" opacity="1.000000" stroke="none" 
	d="
M433.153381,525.148438 
	C431.792847,525.960815 430.202301,526.516174 428.611725,527.071533 
	C428.428131,526.550293 428.244507,526.029053 428.060883,525.507751 
	C429.286591,525.190430 430.512299,524.873047 432.100769,524.466431 
	C432.616791,524.548706 432.770050,524.720093 433.153381,525.148438 
z"/>
<path fill="#FFFFFF" opacity="1.000000" stroke="none" 
	d="
M654.380859,525.521545 
	C653.120239,526.140381 651.658142,526.471558 650.195984,526.802673 
	C650.108826,526.296570 650.021667,525.790405 649.934509,525.284241 
	C650.944275,525.115662 651.953979,524.947083 653.348145,524.735107 
	C653.881470,524.872375 654.030396,525.053101 654.380859,525.521545 
z"/>
</svg>